<svg xmlns="http://www.w3.org/2000/svg" viewBox="0 0 796.2 75.4">
    <path fill="#345C45"
          d="M0 1.4h34.7c13.7 0 20.9 7.9 20.9 18.8 0 7.3-3.4 13-9.4 15.9v.2c8 2.5 12.7 9.2 12.7 17.8 0 11.3-7.3 19.6-21.4 19.6H0V1.4zm32.9 29.3c5.9 0 8.6-3.5 8.6-8.1 0-4.7-2.2-8.1-8.7-8.1H14.2v16.2h18.7zm2.2 30c6.6 0 9.3-3.9 9.3-8.6 0-4.9-3.3-8.7-9.2-8.7h-21v17.4h20.9v-.1zm32.3-29.3C67.4 12 78.5 0 99 0s31.8 12.1 31.8 31.4v42.4h-14.2V52.1H81.3v21.7H67.5V31.4h-.1zm49.2 7.9v-7.9c0-11.6-5.8-18.3-17.7-18.3-11.8 0-17.6 6.6-17.6 18.3v7.9h35.3zm25.7-9.1c0-18.6 11-30.2 30.8-30.2s30.8 11.6 30.8 30.2v43.6h-14.2V30.2c0-10.7-5.5-17.1-16.6-17.1s-16.6 6.3-16.6 17.1v43.6h-14.2V30.2zm71.1 7.4c0-21.7 15.9-37.6 38.5-37.6 18.9 0 33.2 11.2 37.3 27.7h-14.9c-3.4-8.7-11.6-14.5-22.4-14.5-14.4 0-24.1 10.3-24.1 24.5s9.7 24.6 24.1 24.6c10.7 0 18.9-5.9 22.4-14.6h14.9c-4.1 16.5-18.4 27.7-37.3 27.7-22.6-.1-38.5-16.1-38.5-37.8zm85-6.2C298.4 12 309.5 0 329.9 0s31.8 12.1 31.8 31.4v42.4h-14.2V52.1h-35.3v21.7h-13.8V31.4zm49.2 7.9v-7.9c0-11.6-5.8-18.3-17.7-18.3-11.8 0-17.6 6.6-17.6 18.3v7.9h35.3zm55-7.9C402.6 12 413.7 0 434.2 0S466 12.1 466 31.4v42.4h-14.2V52.1h-35.3v21.7h-13.8V31.4h-.1zm49.1 7.9v-7.9c0-11.6-5.8-18.3-17.7-18.3-11.8 0-17.6 6.6-17.6 18.3v7.9h35.3zm27.5-37.9h14.2v72.4h-14.2V1.4zm29.1 0H534c25.4 0 38.6 14.5 38.6 36.2S559.3 73.8 534 73.8h-25.7V1.4zM534 60.7c16.7 0 24.2-9.1 24.2-23.1 0-14.1-7.5-23-24.2-23h-11.5v46.2H534v-.1zm49.8-59.3h53.4v13.2H598v16.2h32.8v12.6H598v17.4h39.2v13.1h-53.4V1.4zm149 30C732.8 12 743.9 0 764.4 0s31.8 12.1 31.8 31.4v42.4H782V52.1h-35.3v21.7h-13.8l-.1-42.4zm49.2 7.9v-7.9c0-11.6-5.8-18.3-17.7-18.3-11.8 0-17.6 6.6-17.6 18.3v7.9H782z"></path>
    <linearGradient id="logo-gradient" gradientUnits="userSpaceOnUse" x1="679.3" y1="40.65" x2="727.4" y2="40.65"
                    gradientTransform="matrix(1 0 0 -1 0 78.2)">
        <stop offset="0" stop-color="#345c45"></stop>
        <stop offset="1" stop-color="#00cc55"></stop>
    </linearGradient>
    <path fill="url(#logo-gradient)" d="m706.7 1.4-27.4 36.1L707 73.7h20.4l-27.6-36.2 27.3-36.1z"></path>
    <path fill="#00cc55" d="m644.4 1.4 27.4 36.1-27.6 36.2h20.4l27.6-36.2-27.3-36.1z"></path>
</svg>