<svg width="131" height="30" viewBox="0 0 131 30" fill="none" xmlns="http://www.w3.org/2000/svg">
<g clip-path="url(#clip0_2024_7402)">
<path d="M29.7734 14.9987C29.7734 8.90715 33.9392 5.83496 38.5895 5.83496C42.8824 5.83496 46.1354 8.36999 46.618 12.0811H43.1125C42.8581 10.1096 40.9782 8.7526 38.5913 8.7526C35.4918 8.7526 33.1536 10.9276 33.1536 14.9987C33.1536 19.0699 35.4899 21.2185 38.5913 21.2185C41.0306 21.2185 42.9105 19.8615 43.2154 17.9164H46.5694C46.2139 21.6275 42.961 24.1625 38.5932 24.1625C33.8681 24.1625 29.7772 21.0903 29.7772 14.9987H29.7734Z" fill="black"/>
<path d="M48.0352 17.5077C48.0352 13.6684 50.8298 10.8525 54.7431 10.8525C58.6563 10.8525 61.4248 13.6684 61.4248 17.5077C61.4248 21.347 58.6301 24.1628 54.7431 24.1628C50.856 24.1628 48.0352 21.347 48.0352 17.5077ZM58.2728 17.5077C58.2728 15.1781 56.8512 13.5647 54.7431 13.5647C52.6349 13.5647 51.1871 15.1781 51.1871 17.5077C51.1871 19.8373 52.6087 21.4506 54.7431 21.4506C56.8774 21.4506 58.2728 19.8373 58.2728 17.5077Z" fill="black"/>
<path d="M62.7188 19.6582H65.5639C65.6911 20.8871 66.6301 21.6542 68.0293 21.6542C69.2489 21.6542 70.0608 21.0398 70.0608 20.2727C70.0608 17.4059 63.0498 20.1445 63.0498 14.6918C63.0498 12.4395 65.0065 10.8525 67.6477 10.8525C70.6463 10.8525 72.7039 12.5168 72.8311 15.0254H69.9859C69.8082 13.8211 68.7158 13.2066 67.7263 13.2066C66.6077 13.2066 65.8707 13.7193 65.8707 14.5901C65.8707 17.3795 72.9845 14.3073 72.9845 20.1445C72.9845 22.5759 71.0279 24.1628 68.0312 24.1628C65.0345 24.1628 62.874 22.4213 62.7225 19.6582H62.7188Z" fill="black"/>
<path d="M75.166 11.0579H78.2899V13.0784C78.924 11.7722 80.196 10.8506 81.9992 10.8506C84.0307 10.8506 85.428 11.7214 85.9873 13.3083C86.5728 11.9777 88.1983 10.8506 90.2298 10.8506C93.0001 10.8506 94.7772 12.873 94.7772 15.6115V23.9554H91.6776V16.5596C91.6776 14.7408 90.7367 13.5383 89.2384 13.5383C87.5623 13.5383 86.5204 14.7408 86.5204 16.5596V23.9554H83.4209V16.5596C83.4209 14.7408 82.4818 13.5383 80.9816 13.5383C79.3299 13.5383 78.2899 14.7408 78.2899 16.5596V23.9554H75.166V11.0579Z" fill="black"/>
<path d="M101.05 7.8294C101.05 8.82267 100.252 9.62559 99.2678 9.62559H98.976C97.9902 9.62559 97.1934 8.82079 97.1934 7.8294C97.1934 6.83612 97.9921 6.0332 98.976 6.0332H99.2678C100.254 6.0332 101.05 6.838 101.05 7.8294ZM97.5712 11.058H100.695V23.9574H97.5712V11.058Z" fill="black"/>
<path d="M102.805 17.5077C102.805 13.8211 105.321 10.8525 109.309 10.8525C112.535 10.8525 115.151 12.7976 115.431 15.768H112.332C112.103 14.4883 110.858 13.5666 109.385 13.5666C107.227 13.5666 106.058 15.2554 106.058 17.5096C106.058 19.7638 107.251 21.4525 109.436 21.4525C110.91 21.4525 112.053 20.6081 112.358 19.3265H115.508C115.1 22.1424 112.612 24.1647 109.309 24.1647C105.321 24.1647 102.805 21.1962 102.805 17.5096V17.5077Z" fill="black"/>
<path d="M116.824 17.5077C116.824 13.6684 119.619 10.8525 123.53 10.8525C127.442 10.8525 130.212 13.6684 130.212 17.5077C130.212 21.347 127.417 24.1628 123.53 24.1628C119.643 24.1628 116.824 21.347 116.824 17.5077ZM127.062 17.5077C127.062 15.1781 125.64 13.5647 123.53 13.5647C121.42 13.5647 119.974 15.1781 119.974 17.5077C119.974 19.8373 121.398 21.4506 123.53 21.4506C125.663 21.4506 127.062 19.8373 127.062 17.5077Z" fill="black"/>
<path d="M8.68667 14.9987C8.68667 11.5534 11.4682 8.7526 14.8858 8.7526V5.83496C9.86326 5.83496 5.79102 9.93812 5.79102 14.9987C5.79102 20.0594 9.86326 24.1625 14.8858 24.1625V21.2449C11.4664 21.2449 8.68667 18.4422 8.68667 14.9987Z" fill="black"/>
<path d="M21.0878 14.9991C21.0878 11.5499 18.3118 8.75293 14.8887 8.75293V21.2471C18.3118 21.2471 21.0878 18.4501 21.0878 15.001V14.9991Z" fill="black"/>
<path d="M2.89565 14.9991C2.89565 8.32695 8.26421 2.91763 14.8861 2.91763V0C6.67796 0 0 6.72865 0 14.9991C0 23.2695 6.67796 29.9981 14.8861 29.9981V27.0805C8.26421 27.0805 2.89378 21.6712 2.89378 14.9972L2.89565 14.9991Z" fill="black"/>
</g>
<defs>
<clipPath id="clip0_2024_7402">
<rect width="130.213" height="30" fill="white"/>
</clipPath>
</defs>
</svg>
