<svg width="193" height="46" viewBox="0 0 193 46" fill="none" xmlns="http://www.w3.org/2000/svg">
<path d="M17.837 31.3898H14.1233L13.8983 29.646C12.9417 30.771 11.3662 31.7836 8.55277 31.7836C4.05131 31.7836 0 28.8584 0 22.6705C0 17.0451 3.5449 13.1636 9.28426 13.1636C13.5606 13.1636 16.9367 15.3575 17.6682 19.7453H12.1539C11.7601 18.2827 10.691 17.4951 9.17172 17.4951C6.86472 17.4951 5.79563 19.5765 5.79563 22.6705C5.79563 25.2019 6.58338 27.4521 9.50933 27.4521C10.691 27.4521 12.2102 26.6645 12.4915 25.4269H9.95948V21.6017H17.8933V31.3898H17.837Z" fill="#FA683C"/>
<path d="M19.9753 31.3899V13.6699H25.771V31.3336C25.771 31.3899 19.9753 31.3899 19.9753 31.3899Z" fill="#FA683C"/>
<path d="M27.7405 31.3899V13.6699H34.7177L37.8125 24.7519L40.9072 13.7262H47.8845V31.3899H42.6516V25.9895L42.7078 23.2331L42.9892 20.0266H42.9329L39.8944 31.3899H35.8431L32.6358 19.9704H32.5795L32.8046 22.558L32.9172 25.3145V31.3336H27.7405V31.3899Z" fill="#FA683C"/>
<path d="M49.5725 31.3899V13.6699H56.606L59.7008 24.6957L62.7955 13.6699H69.7728V31.3336H64.6524V25.9333L64.7087 23.1768L64.99 19.9704H64.9337L61.7264 31.3336H57.6751L54.4678 19.9704H54.4116L54.6366 22.558L54.7492 25.3145V31.3336C54.7492 31.3899 49.5725 31.3899 49.5725 31.3899Z" fill="#FA683C"/>
<path d="M71.7985 31.3899V13.6699H86.2031V17.7765H77.5941V20.3079H84.909V24.4144H77.5941V27.2271H86.597V31.3336C86.597 31.3899 71.7985 31.3899 71.7985 31.3899Z" fill="#FA683C"/>
<path d="M90.4232 13.5012H101.733V17.7765H94.0807L93.518 20.4204C94.6434 19.6329 95.825 19.4641 97.1754 19.4641C100.552 19.4641 103.196 21.5455 103.196 25.0333C103.196 29.9274 99.3136 31.5025 95.2623 31.5025C91.3798 31.5025 88.904 29.7586 87.8912 26.4959L93.1241 25.9896C93.1241 26.0458 93.1804 26.1021 93.1804 26.1583C93.4617 27.0584 94.4746 27.5647 95.4311 27.5647C96.9504 27.5647 97.9632 26.5521 97.9632 25.2583C97.9632 23.7957 97.288 22.7269 95.6562 22.7269C94.8684 22.7269 93.9681 22.9519 93.5743 23.6832L88.6789 23.5144L90.4232 13.5012Z" fill="#FA683C"/>
<path d="M60.5447 23.0645C61.0511 23.0645 63.3019 22.0517 62.1202 22.0517C61.5576 21.9954 59.3631 23.0645 60.5447 23.0645Z" fill="#FA683C"/>
<path d="M186.867 22.1078C186.867 22.1078 186.585 17.3825 184.166 13.6134C181.634 9.67567 180.171 8.43808 180.171 8.43808C180.171 8.43808 180.452 5.8504 181.127 4.10653C182.028 1.80012 183.266 0 183.266 0C183.266 0 180.734 0.843809 178.483 1.91263C176.063 3.03771 174.263 4.10653 174.263 4.10653C155.019 -0.787555 126.997 7.70678 120.076 10.5757L136.676 12.1508L115.744 15.8636L139.545 17.2137L109.329 22.5578L137.97 26.4956L120.639 29.252L142.415 32.0647L115.575 33.1898C115.575 33.1898 143.934 43.653 154.062 44.6093C161.321 45.2844 165.429 45.2844 174.038 43.0342C182.253 40.8966 188.105 35.5525 188.105 35.5525L192.381 31.9522L193 21.6015C193 21.6577 189.343 23.3454 186.867 22.1078ZM159.971 34.5961C155.525 34.5961 152.262 32.571 151.418 28.2957H157.495C157.495 28.352 157.551 28.352 157.551 28.4082C157.889 29.477 158.901 30.0958 160.139 30.0396C161.884 30.0396 163.065 28.8582 163.065 27.3394C163.065 25.6518 161.884 24.4142 160.421 24.3579C159.295 24.3579 158.057 25.033 157.551 25.933H151.587L154.344 13.726H167.454V18.5075H158.901L158.114 21.6015C159.408 20.7014 160.59 20.6452 162.165 20.6452C166.104 20.6452 169.142 23.0078 169.142 27.1144C169.142 32.7398 164.641 34.5961 159.971 34.5961ZM179.439 16.7074C178.539 16.7074 177.808 15.9761 177.808 15.1323C177.808 14.2322 178.539 13.5572 179.439 13.5572C180.34 13.5572 181.071 14.2885 181.071 15.1323C181.071 15.9761 180.34 16.7074 179.439 16.7074Z" fill="#FA683C"/>
</svg>
