<?xml version="1.0" encoding="utf-8"?>
<!-- Generator: Adobe Illustrator 19.0.0, SVG Export Plug-In . SVG Version: 6.00 Build 0)  -->
<svg version="1.1" id="layer" xmlns="http://www.w3.org/2000/svg" xmlns:xlink="http://www.w3.org/1999/xlink" x="0px" y="0px"
	 viewBox="-153 -46 652 652" style="enable-background:new -153 -46 652 652;" xml:space="preserve">
<style type="text/css">
	.st0{fill:#6E6F6E;}
</style>
<path class="st0" d="M-45.8,233.4c-9.6,0-18,4.1-21.5,14.1h-0.2c-3.3-10-11.5-14.1-21.3-14.1c-12.2,0-27,6.7-37.8,16.1
	c-0.2,0.2-0.2,0.4-0.2,0.6v6.7c0,0.2,0.2,0.4,0.4,0.2c9.6-7,23.3-12.4,34.4-12.4c10.2,0,18.1,4.8,18.1,18v64.2h13.3v-64.4
	c0-13,7.8-18,18.1-18c10.9,0,24.6,5.6,34.4,12.4c0.2,0.2,0.4,0,0.4-0.2V250c0-0.2,0-0.4-0.2-0.4C-18.8,240-33.4,233.4-45.8,233.4z
	 M7.3,281.5h15.9v44.8h12.2v-44.8h15.9v-10.9H7.3V281.5z M109.3,297.6c2-2.8,3.1-6.1,3.1-10c0-3.3-0.6-5.9-1.7-8.1
	c-1.1-2.2-2.6-3.9-4.6-5.2c-1.9-1.3-4.1-2.2-6.7-2.8s-5.2-0.9-8.1-0.9H69.7v55.7h12.2v-22.2H88l11.7,22.2h14.8l-14.3-23.5
	C104.1,302.1,107.1,300.4,109.3,297.6z M98.6,291.1c-0.7,0.7-1.5,1.5-2.4,1.9c-0.9,0.4-2,0.6-3.3,0.7c-1.3,0-2.4,0.2-3.5,0.2h-7.2
	v-12.6h8c1.1,0,2.2,0,3.3,0.2c1.1,0.2,2.2,0.4,3.1,0.9c0.9,0.4,1.7,1.1,2.2,1.9c0.6,0.9,0.9,2,0.9,3.3
	C99.5,289.1,99.1,290.2,98.6,291.1z M145.6,303.7h24.3v-11.3h-24.3v-10.4h25.5v-11.5h-37.8v55.7h39.2V315h-27V303.7z M224.4,314.8
	c-1.9,1.1-4.1,1.5-6.7,1.5c-2.2,0-4.3-0.4-6.1-1.3c-1.9-0.9-3.5-2.2-5-3.7c-1.5-1.7-2.6-3.5-3.3-5.7s-1.3-4.6-1.3-7.2s0.4-5,1.3-7.2
	s1.9-4.1,3.3-5.7c1.5-1.7,3.1-2.8,5.2-3.7s4.1-1.3,6.5-1.3c2.2,0,4.3,0.4,6.1,1.1c1.9,0.7,3.3,1.9,4.4,3.3l9.4-7.8
	c-1.3-1.5-2.6-2.8-4.1-3.9c-1.5-1.1-3.1-1.9-4.8-2.6c-1.7-0.6-3.3-1.1-5-1.3c-1.7-0.4-3.3-0.4-5-0.4c-4.3,0-8.3,0.7-12,2
	s-6.8,3.3-9.4,5.9c-2.8,2.6-4.8,5.6-6.3,9.3c-1.5,3.7-2.2,7.6-2.2,12c0,4.4,0.7,8.5,2.2,12c1.5,3.7,3.5,6.7,6.3,9.3
	c2.6,2.6,5.9,4.4,9.4,5.9c3.7,1.3,7.8,2,12,2c3.9,0,7.6-0.7,11.1-2.4c3.7-1.7,6.7-4.1,8.9-7.4l-10.2-7.6
	C228.1,312.4,226.5,313.9,224.4,314.8z M288.3,314.8c-2,1.1-4.1,1.5-6.7,1.5c-2.2,0-4.3-0.4-6.1-1.3c-1.9-0.9-3.5-2.2-5-3.7
	c-1.5-1.5-2.6-3.5-3.3-5.7c-0.7-2.2-1.3-4.6-1.3-7.2s0.4-5,1.3-7.2c0.9-2.2,1.9-4.1,3.3-5.7c1.5-1.7,3.1-2.8,5.2-3.7
	c2-0.9,4.1-1.3,6.5-1.3c2.2,0,4.3,0.4,6.1,1.1c1.7,0.7,3.3,1.9,4.4,3.3l9.4-7.8c-1.3-1.5-2.6-2.8-4.1-3.9c-1.5-1.1-3.1-1.9-4.8-2.6
	c-1.7-0.6-3.3-1.1-5-1.3c-1.7-0.4-3.3-0.4-5-0.4c-4.4,0-8.3,0.7-12,2c-3.7,1.3-6.8,3.3-9.4,5.9s-4.8,5.6-6.3,9.3
	c-1.5,3.7-2.2,7.6-2.2,12c0,4.4,0.7,8.5,2.2,12c1.5,3.7,3.5,6.7,6.3,9.3c2.6,2.6,5.9,4.4,9.4,5.9c3.5,1.5,7.6,2,12,2
	c3.9,0,7.6-0.7,11.1-2.4c3.7-1.7,6.7-4.1,9.1-7.4l-10.2-7.6C291.8,312.4,290.3,313.9,288.3,314.8z M338.3,270.6l-24.1,55.7h13.5
	l4.6-11.8H354l4.8,11.8h13.9l-24.3-55.7H338.3z M336.3,304.1l6.8-17.2l6.8,17.2H336.3z M427.5,309.3h-0.2l-23.7-38.7H387v55.7h12.4
	v-39.6h0.2l24.3,39.6h16.1v-55.7h-12.4L427.5,309.3z M461,270.6h12.2v55.7H461V270.6z"/>
</svg>
